# xmcd CD database file
# 
# Track frame offsets:
# 	150
# 	13237
# 	26963
# 	49313
# 	63283
# 	77203
# 	90360
# 	103398
# 	120573
# 	136443
# 	156178
# 	168313
# 	180800
# 	197813
# 	214625
# 	235585
# 	250585
# 	262763
# 	273028
# 	284140
# 
# Disc length: 3968 seconds
# 
# Submitted via: Nero 6, 0, 0, 28
# 
# Revision: 0
# Processed by: cddbd v1.4PL0 Copyright (c) Steve Scherf et al.
#
DISCID=120f7e14
DTITLE=Various Artist - Country Roads Vol 6
DYEAR=1900
DGENRE=
TTITLE0=Charlie Rich - Most Beautiful Girl In The World
TTITLE1=Tammy Wynette and George Jones - Golden Rings
TTITLE2=Eddie rabbit - Suspicions
TTITLE3=Lee Greenwood - Dixie Road
TTITLE4=Johnny Paycheck - Slide Off Your Satin Sheets
TTITLE5=Freddy Weller - The Man Who Turned My Mama On
TTITLE6=Freddy Weller - She Loves Me Right Out Of My Mind
TTITLE7=Eddy Raven - Joe Sure Knows How To Live
TTITLE8=Ray Stevens - Everything Is beautiful
TTITLE9=Becky Hobbs - Angels Among Us
TTITLE10=Hank Thompson - Oklahoma Hills
TTITLE11=Porter Wagoner - A Satisfied Mind
TTITLE12=Alex Harvey - Rings
TTITLE13=Merle Haggard - Today I Started Loving You Again
TTITLE14=Stella Parton - A Woman's Touch
TTITLE15=Johnny Rodriguez - Desperado
TTITLE16=Jerry Wallace - To Get To You
TTITLE17=Billie Jo Spears - I'm Gonna Be A Country Girl Again
TTITLE18=Slim Whitman - The Wayward Wind
TTITLE19=Patti Page - Tennesee Waltz
EXTD=
EXTT0=
EXTT1=
EXTT2=
EXTT3=
EXTT4=
EXTT5=
EXTT6=
EXTT7=
EXTT8=
EXTT9=
EXTT10=
EXTT11=
EXTT12=
EXTT13=
EXTT14=
EXTT15=
EXTT16=
EXTT17=
EXTT18=
EXTT19=
PLAYORDER=
